<svg width="192" height="92" viewBox="0 0 192 92" fill="none" xmlns="http://www.w3.org/2000/svg">
<path fill-rule="evenodd" clip-rule="evenodd" d="M10.3976 44.2062L2 39.1875L32.375 21.625L39.4062 27.5104L46.4375 21.625L76.8125 39.1875L68.8837 43.926L77.6875 49.1875L47.3125 66.75L39.875 60.5245L32.4375 66.75L2.0625 49.1875L10.3976 44.2062ZM39.875 59.0924L64.4821 44.4479L39.4062 29.5244L14.7991 44.1689L39.875 59.0924Z" fill="#8790BB"/>
<path d="M2 39.1875L1.56202 38.43L0.273479 39.175L1.55112 39.9386L2 39.1875ZM10.3976 44.2062L10.8465 44.9573L12.1032 44.2062L10.8465 43.4551L10.3976 44.2062ZM32.375 21.625L32.9366 20.954L32.4671 20.561L31.937 20.8675L32.375 21.625ZM39.4062 27.5104L38.8446 28.1814L39.4062 28.6515L39.9679 28.1814L39.4062 27.5104ZM46.4375 21.625L46.8755 20.8675L46.3454 20.561L45.8759 20.954L46.4375 21.625ZM76.8125 39.1875L77.2614 39.9386L78.539 39.175L77.2505 38.43L76.8125 39.1875ZM68.8837 43.926L68.4348 43.1749L67.178 43.926L68.4348 44.6771L68.8837 43.926ZM77.6875 49.1875L78.1255 49.945L79.414 49.2L78.1364 48.4364L77.6875 49.1875ZM47.3125 66.75L46.7509 67.421L47.2204 67.814L47.7505 67.5075L47.3125 66.75ZM39.875 60.5245L40.4366 59.8536L39.875 59.3835L39.3134 59.8536L39.875 60.5245ZM32.4375 66.75L31.9995 67.5075L32.5296 67.814L32.9991 67.421L32.4375 66.75ZM2.0625 49.1875L1.61362 48.4364L0.335978 49.2L1.62452 49.945L2.0625 49.1875ZM64.4821 44.4479L64.9296 45.1998L66.193 44.4479L64.9296 43.696L64.4821 44.4479ZM39.875 59.0924L39.4275 59.8443L39.875 60.1106L40.3225 59.8443L39.875 59.0924ZM39.4062 29.5244L39.8537 28.7725L39.4062 28.5062L38.9588 28.7725L39.4062 29.5244ZM14.7991 44.1689L14.3517 43.417L13.0882 44.1689L14.3517 44.9208L14.7991 44.1689ZM1.55112 39.9386L9.94871 44.9573L10.8465 43.4551L2.44888 38.4364L1.55112 39.9386ZM31.937 20.8675L1.56202 38.43L2.43798 39.945L32.813 22.3825L31.937 20.8675ZM39.9679 26.8394L32.9366 20.954L31.8134 22.296L38.8446 28.1814L39.9679 26.8394ZM45.8759 20.954L38.8446 26.8394L39.9679 28.1814L46.9991 22.296L45.8759 20.954ZM77.2505 38.43L46.8755 20.8675L45.9995 22.3825L76.3745 39.945L77.2505 38.43ZM69.3325 44.6771L77.2614 39.9386L76.3636 38.4364L68.4348 43.1749L69.3325 44.6771ZM78.1364 48.4364L69.3325 43.1749L68.4348 44.6771L77.2386 49.9386L78.1364 48.4364ZM47.7505 67.5075L78.1255 49.945L77.2495 48.43L46.8745 65.9925L47.7505 67.5075ZM39.3134 61.1955L46.7509 67.421L47.8741 66.079L40.4366 59.8536L39.3134 61.1955ZM32.9991 67.421L40.4366 61.1955L39.3134 59.8536L31.8759 66.079L32.9991 67.421ZM1.62452 49.945L31.9995 67.5075L32.8755 65.9925L2.50048 48.43L1.62452 49.945ZM9.94871 43.4551L1.61362 48.4364L2.51138 49.9386L10.8465 44.9573L9.94871 43.4551ZM64.0346 43.696L39.4275 58.3405L40.3225 59.8443L64.9296 45.1998L64.0346 43.696ZM38.9588 30.2763L64.0346 45.1998L64.9296 43.696L39.8537 28.7725L38.9588 30.2763ZM15.2466 44.9208L39.8537 30.2763L38.9588 28.7725L14.3517 43.417L15.2466 44.9208ZM40.3225 58.3405L15.2466 43.417L14.3517 44.9208L39.4275 59.8443L40.3225 58.3405Z" fill="#0A0E01"/>
<line x1="39.3457" y1="37.509" x2="39.3457" y2="71.3171" stroke="#0A0E01" stroke-width="1.3125"/>
<path d="M47.2155 9.66169C41.8825 20.0654 40.742 27.4908 38.2188 39.2783C38.2188 39.2783 57.9759 40.5883 64.1782 27.2878C68.6015 17.8021 68.6786 1.13134 68.6786 1.13134C68.6786 1.13134 52.5486 -0.742026 47.2155 9.66169Z" fill="#99B64D" stroke="#0A0E01" stroke-width="1.3125"/>
<path d="M39.8125 39.5445L54.8071 21.4514" stroke="#0A0E01" stroke-width="1.3125"/>
<path d="M30.417 21.8257C36.0489 30.6464 37.2533 36.942 39.918 46.936C39.918 46.936 19.0536 48.0467 12.5037 36.7699C7.83245 28.7275 7.75102 14.5933 7.75102 14.5933C7.75102 14.5933 24.7851 13.005 30.417 21.8257Z" fill="#99B64D" stroke="#0A0E01" stroke-width="1.3125"/>
<path d="M38.2363 47.1616L22.4014 31.8215" stroke="#0A0E01" stroke-width="1.3125"/>
<path d="M9.4375 52.625V74.8559C9.4375 75.5188 9.812 76.1248 10.4049 76.4212L39.1875 90.8125M39.1875 90.8125V60.375M39.1875 90.8125L71.1566 76.4022C71.7841 76.1193 72.1875 75.495 72.1875 74.8068V52.625" stroke="#0A0E01" stroke-width="1.75"/>
<path d="M96.8037 36.028C96.5987 36.1491 96.4123 36.191 96.2446 36.1538C96.0768 36.1165 95.9277 36 95.7972 35.8043L91.2121 28.5073H86.0819V35.2591C86.0819 35.753 85.8396 36 85.355 36C84.861 36 84.6141 35.753 84.6141 35.2591V18.722C84.6141 18.2281 84.861 17.9811 85.355 17.9811H91.8971C93.4907 17.9811 94.6929 18.3912 95.5037 19.2113C96.3238 20.0314 96.7338 21.2382 96.7338 22.8318V23.6706C96.7338 25.0778 96.4123 26.1821 95.7693 26.9836C95.1262 27.785 94.1757 28.2743 92.9176 28.4514L97.0414 35.0215C97.3023 35.4502 97.2231 35.7857 96.8037 36.028ZM86.0819 27.0395H91.8971C93.0713 27.0395 93.9241 26.7739 94.4553 26.2427C94.9958 25.7022 95.266 24.8448 95.266 23.6706V22.8318C95.266 21.6483 94.9958 20.7909 94.4553 20.2597C93.9241 19.7192 93.0713 19.4489 91.8971 19.4489H86.0819V27.0395ZM102.277 29.9611V30.9816C102.277 32.2956 102.538 33.2182 103.06 33.7494C103.591 34.2713 104.523 34.5322 105.856 34.5322H108.148C109.323 34.5322 110.175 34.3831 110.706 34.0849C111.247 33.7773 111.568 33.2508 111.671 32.5053C111.708 32.2723 111.783 32.0952 111.895 31.9741C112.016 31.8529 112.198 31.7923 112.44 31.7923C112.682 31.7923 112.864 31.8622 112.985 32.002C113.116 32.1325 113.167 32.3189 113.139 32.5612C113.018 33.7354 112.547 34.6021 111.727 35.1613C110.907 35.7204 109.714 36 108.148 36H105.856C104.113 36 102.836 35.5993 102.026 34.7978C101.215 33.987 100.809 32.7149 100.809 30.9816V27.8223C100.809 26.061 101.215 24.7796 102.026 23.9781C102.836 23.1673 104.113 22.7712 105.856 22.7899H108.148C109.891 22.7899 111.163 23.1953 111.965 24.006C112.775 24.8075 113.181 26.0796 113.181 27.8223V29.2202C113.181 29.7141 112.938 29.9611 112.454 29.9611H102.277ZM105.856 24.2577C104.523 24.239 103.591 24.4953 103.06 25.0265C102.538 25.5484 102.277 26.4803 102.277 27.8223V28.4933H111.713V27.8223C111.713 26.4896 111.452 25.5624 110.93 25.0405C110.408 24.5186 109.481 24.2577 108.148 24.2577H105.856ZM118.773 36C118.279 36 118.033 35.753 118.033 35.2591V18.722C118.033 18.2281 118.279 17.9811 118.773 17.9811C119.258 17.9811 119.5 18.2281 119.5 18.722V34.5322H128C128.493 34.5322 128.74 34.7745 128.74 35.2591C128.74 35.753 128.493 36 128 36H118.773ZM132.431 20.2457C131.788 20.2457 131.466 19.9149 131.466 19.2532V18.6241C131.466 17.9811 131.788 17.6596 132.431 17.6596H133.06C133.684 17.6596 133.997 17.9811 133.997 18.6241V19.2532C133.997 19.9149 133.684 20.2457 133.06 20.2457H132.431ZM132.752 36C132.258 36 132.011 35.753 132.011 35.2591V23.5168C132.011 23.0322 132.258 22.7899 132.752 22.7899C133.237 22.7899 133.479 23.0322 133.479 23.5168V35.2591C133.479 35.753 133.237 36 132.752 36ZM139.679 36C139.185 36 138.938 35.753 138.938 35.2591V24.2577H137.764C137.27 24.2577 137.023 24.0107 137.023 23.5168C137.023 23.0322 137.27 22.7899 137.764 22.7899H138.938V21.5597C138.938 19.845 139.334 18.5915 140.127 17.7994C140.928 17.0072 142.186 16.6112 143.901 16.6112C144.376 16.6112 144.614 16.8535 144.614 17.3381C144.614 17.832 144.376 18.079 143.901 18.079C142.596 18.079 141.687 18.3352 141.175 18.8478C140.662 19.3511 140.406 20.255 140.406 21.5597V22.7899H143.873C144.367 22.7899 144.614 23.0322 144.614 23.5168C144.614 24.0107 144.367 24.2577 143.873 24.2577H140.406V35.2591C140.406 35.753 140.164 36 139.679 36ZM148.118 29.9611V30.9816C148.118 32.2956 148.379 33.2182 148.901 33.7494C149.432 34.2713 150.364 34.5322 151.697 34.5322H153.989C155.164 34.5322 156.016 34.3831 156.548 34.0849C157.088 33.7773 157.41 33.2508 157.512 32.5053C157.549 32.2723 157.624 32.0952 157.736 31.9741C157.857 31.8529 158.039 31.7923 158.281 31.7923C158.523 31.7923 158.705 31.8622 158.826 32.002C158.957 32.1325 159.008 32.3189 158.98 32.5612C158.859 33.7354 158.388 34.6021 157.568 35.1613C156.748 35.7204 155.555 36 153.989 36H151.697C149.954 36 148.677 35.5993 147.867 34.7978C147.056 33.987 146.651 32.7149 146.651 30.9816V27.8223C146.651 26.061 147.056 24.7796 147.867 23.9781C148.677 23.1673 149.954 22.7712 151.697 22.7899H153.989C155.732 22.7899 157.004 23.1953 157.806 24.006C158.617 24.8075 159.022 26.0796 159.022 27.8223V29.2202C159.022 29.7141 158.78 29.9611 158.295 29.9611H148.118ZM151.697 24.2577C150.364 24.239 149.432 24.4953 148.901 25.0265C148.379 25.5484 148.118 26.4803 148.118 27.8223V28.4933H157.554V27.8223C157.554 26.4896 157.293 25.5624 156.771 25.0405C156.249 24.5186 155.322 24.2577 153.989 24.2577H151.697Z" fill="#0A0E01"/>
<path d="M90.752 59L89.232 55.064H84.48L82.944 59H82L86.496 47.544H87.328L91.712 59H90.752ZM87.408 50.104C87.376 49.9973 87.328 49.8533 87.264 49.672C87.2 49.4907 87.136 49.2987 87.072 49.096C87.008 48.8933 86.944 48.712 86.88 48.552C86.8267 48.7333 86.768 48.92 86.704 49.112C86.6507 49.304 86.592 49.4853 86.528 49.656C86.4747 49.8267 86.4213 49.9813 86.368 50.12L84.8 54.232H88.944L87.408 50.104ZM101.107 50.328C102.077 50.328 102.819 50.5787 103.331 51.08C103.843 51.5813 104.099 52.3707 104.099 53.448V59H103.203V53.496C103.203 52.6747 103.016 52.072 102.643 51.688C102.269 51.304 101.72 51.112 100.995 51.112C100.067 51.112 99.368 51.384 98.8986 51.928C98.4293 52.472 98.1946 53.2827 98.1946 54.36V59H97.2986V50.488H98.0186L98.1626 51.96H98.2106C98.3706 51.6507 98.584 51.3733 98.8506 51.128C99.1173 50.8827 99.4373 50.6907 99.8106 50.552C100.195 50.4027 100.627 50.328 101.107 50.328ZM110.03 50.328C110.766 50.328 111.374 50.4987 111.854 50.84C112.345 51.1707 112.713 51.6293 112.958 52.216C113.214 52.8027 113.342 53.48 113.342 54.248V54.856H107.262C107.262 55.9973 107.524 56.8667 108.046 57.464C108.58 58.0613 109.332 58.36 110.302 58.36C110.836 58.36 111.3 58.3173 111.694 58.232C112.089 58.1467 112.521 57.9973 112.99 57.784V58.616C112.564 58.808 112.142 58.9467 111.726 59.032C111.31 59.1173 110.825 59.16 110.27 59.16C109.428 59.16 108.708 58.984 108.11 58.632C107.524 58.28 107.076 57.7787 106.766 57.128C106.468 56.4667 106.318 55.6987 106.318 54.824C106.318 53.9493 106.462 53.176 106.75 52.504C107.038 51.832 107.46 51.304 108.014 50.92C108.569 50.5253 109.241 50.328 110.03 50.328ZM110.03 51.096C109.241 51.096 108.606 51.3573 108.126 51.88C107.646 52.392 107.364 53.1333 107.278 54.104H112.398C112.398 53.5067 112.313 52.984 112.142 52.536C111.972 52.088 111.71 51.736 111.358 51.48C111.017 51.224 110.574 51.096 110.03 51.096ZM120.402 53.464C120.349 53.2827 120.295 53.1067 120.242 52.936C120.199 52.7653 120.157 52.6053 120.114 52.456C120.071 52.296 120.029 52.1413 119.986 51.992C119.943 51.8427 119.906 51.704 119.874 51.576H119.826C119.794 51.704 119.757 51.8427 119.714 51.992C119.682 52.1413 119.645 52.3013 119.602 52.472C119.559 52.632 119.511 52.7973 119.458 52.968C119.415 53.128 119.367 53.2987 119.314 53.48L117.506 59H116.546L114.146 50.488H115.09L116.53 55.752C116.615 56.072 116.69 56.3653 116.754 56.632C116.818 56.888 116.877 57.128 116.93 57.352C116.983 57.5653 117.021 57.7627 117.042 57.944H117.09C117.122 57.816 117.154 57.6773 117.186 57.528C117.229 57.368 117.271 57.2027 117.314 57.032C117.357 56.8613 117.405 56.68 117.458 56.488C117.522 56.2853 117.586 56.0827 117.65 55.88L119.41 50.488H120.354L122.034 55.864C122.119 56.12 122.194 56.376 122.258 56.632C122.333 56.8773 122.397 57.112 122.45 57.336C122.514 57.5493 122.562 57.752 122.594 57.944H122.642C122.663 57.7627 122.695 57.5653 122.738 57.352C122.791 57.128 122.85 56.8827 122.914 56.616C122.989 56.3493 123.069 56.0613 123.154 55.752L124.546 50.488H125.474L123.154 59H122.146L120.402 53.464ZM132.148 50.744C132.148 50.9573 132.142 51.1653 132.132 51.368C132.121 51.5707 132.11 51.7733 132.1 51.976H132.164C132.313 51.656 132.521 51.3733 132.788 51.128C133.054 50.8827 133.374 50.6907 133.748 50.552C134.132 50.4133 134.564 50.344 135.044 50.344C135.694 50.344 136.244 50.456 136.692 50.68C137.14 50.8933 137.476 51.2293 137.7 51.688C137.934 52.136 138.052 52.7227 138.052 53.448V59H137.156V53.496C137.156 52.6747 136.969 52.072 136.596 51.688C136.222 51.304 135.673 51.112 134.948 51.112C134.329 51.112 133.812 51.2347 133.396 51.48C132.98 51.7147 132.665 52.0773 132.452 52.568C132.249 53.048 132.148 53.6453 132.148 54.36V59H131.252V46.84H132.148V50.744ZM147.887 54.744C147.887 55.4053 147.802 56.008 147.631 56.552C147.471 57.0853 147.226 57.5493 146.895 57.944C146.575 58.328 146.175 58.6267 145.695 58.84C145.215 59.0533 144.666 59.16 144.047 59.16C143.461 59.16 142.933 59.0587 142.463 58.856C142.005 58.6427 141.61 58.344 141.279 57.96C140.949 57.5653 140.698 57.096 140.527 56.552C140.357 56.008 140.271 55.4053 140.271 54.744C140.271 53.816 140.421 53.0267 140.719 52.376C141.029 51.7147 141.471 51.208 142.047 50.856C142.634 50.504 143.327 50.328 144.127 50.328C144.938 50.328 145.621 50.5147 146.175 50.888C146.741 51.2507 147.167 51.7627 147.455 52.424C147.743 53.0853 147.887 53.8587 147.887 54.744ZM141.215 54.744C141.215 55.4693 141.317 56.1093 141.519 56.664C141.722 57.208 142.037 57.6293 142.463 57.928C142.89 58.2267 143.423 58.376 144.063 58.376C144.725 58.376 145.269 58.2267 145.695 57.928C146.122 57.6187 146.437 57.192 146.639 56.648C146.842 56.0933 146.943 55.4587 146.943 54.744C146.943 54.0293 146.847 53.4 146.655 52.856C146.463 52.312 146.159 51.8853 145.743 51.576C145.327 51.2667 144.783 51.112 144.111 51.112C143.141 51.112 142.415 51.432 141.935 52.072C141.455 52.712 141.215 53.6027 141.215 54.744ZM159.085 50.328C159.938 50.328 160.6 50.568 161.069 51.048C161.549 51.528 161.789 52.2853 161.789 53.32V59H160.877V53.352C160.877 52.5947 160.706 52.0347 160.365 51.672C160.024 51.2987 159.56 51.112 158.973 51.112C158.152 51.112 157.522 51.352 157.085 51.832C156.658 52.3013 156.445 53.032 156.445 54.024V59H155.533V53.352C155.533 52.84 155.453 52.4187 155.293 52.088C155.144 51.7573 154.925 51.512 154.637 51.352C154.36 51.192 154.018 51.112 153.613 51.112C153.08 51.112 152.626 51.224 152.253 51.448C151.88 51.672 151.592 52.008 151.389 52.456C151.197 52.904 151.101 53.4747 151.101 54.168V59H150.205V50.488H150.925L151.069 51.848H151.117C151.266 51.56 151.458 51.304 151.693 51.08C151.938 50.856 152.232 50.6747 152.573 50.536C152.914 50.3973 153.304 50.328 153.741 50.328C154.37 50.328 154.898 50.4613 155.325 50.728C155.752 50.9947 156.05 51.3947 156.221 51.928H156.285C156.53 51.416 156.893 51.0213 157.373 50.744C157.864 50.4667 158.434 50.328 159.085 50.328ZM167.702 50.328C168.438 50.328 169.046 50.4987 169.526 50.84C170.017 51.1707 170.385 51.6293 170.63 52.216C170.886 52.8027 171.014 53.48 171.014 54.248V54.856H164.934C164.934 55.9973 165.195 56.8667 165.718 57.464C166.251 58.0613 167.003 58.36 167.974 58.36C168.507 58.36 168.971 58.3173 169.366 58.232C169.761 58.1467 170.193 57.9973 170.662 57.784V58.616C170.235 58.808 169.814 58.9467 169.398 59.032C168.982 59.1173 168.497 59.16 167.942 59.16C167.099 59.16 166.379 58.984 165.782 58.632C165.195 58.28 164.747 57.7787 164.438 57.128C164.139 56.4667 163.99 55.6987 163.99 54.824C163.99 53.9493 164.134 53.176 164.422 52.504C164.71 51.832 165.131 51.304 165.686 50.92C166.241 50.5253 166.913 50.328 167.702 50.328ZM167.702 51.096C166.913 51.096 166.278 51.3573 165.798 51.88C165.318 52.392 165.035 53.1333 164.95 54.104H170.07C170.07 53.5067 169.985 52.984 169.814 52.536C169.643 52.088 169.382 51.736 169.03 51.48C168.689 51.224 168.246 51.096 167.702 51.096ZM86.72 73.224H84.688V81H83.776V73.224H82.208V72.728L83.776 72.472V71.608C83.776 70.968 83.8667 70.44 84.048 70.024C84.24 69.5973 84.5227 69.2827 84.896 69.08C85.28 68.8667 85.7547 68.76 86.32 68.76C86.6187 68.76 86.8907 68.7867 87.136 68.84C87.3813 68.8827 87.6053 68.936 87.808 69L87.584 69.752C87.4027 69.688 87.2 69.6347 86.976 69.592C86.7627 69.5493 86.544 69.528 86.32 69.528C85.744 69.528 85.328 69.6933 85.072 70.024C84.816 70.344 84.688 70.872 84.688 71.608V72.488H86.72V73.224ZM95.4655 76.744C95.4655 77.4053 95.3802 78.008 95.2095 78.552C95.0495 79.0853 94.8042 79.5493 94.4735 79.944C94.1535 80.328 93.7535 80.6267 93.2735 80.84C92.7935 81.0533 92.2442 81.16 91.6255 81.16C91.0388 81.16 90.5108 81.0587 90.0415 80.856C89.5828 80.6427 89.1882 80.344 88.8575 79.96C88.5268 79.5653 88.2762 79.096 88.1055 78.552C87.9348 78.008 87.8495 77.4053 87.8495 76.744C87.8495 75.816 87.9988 75.0267 88.2975 74.376C88.6068 73.7147 89.0495 73.208 89.6255 72.856C90.2122 72.504 90.9055 72.328 91.7055 72.328C92.5162 72.328 93.1988 72.5147 93.7535 72.888C94.3188 73.2507 94.7455 73.7627 95.0335 74.424C95.3215 75.0853 95.4655 75.8587 95.4655 76.744ZM88.7935 76.744C88.7935 77.4693 88.8948 78.1093 89.0975 78.664C89.3002 79.208 89.6148 79.6293 90.0415 79.928C90.4682 80.2267 91.0015 80.376 91.6415 80.376C92.3028 80.376 92.8468 80.2267 93.2735 79.928C93.7002 79.6187 94.0148 79.192 94.2175 78.648C94.4202 78.0933 94.5215 77.4587 94.5215 76.744C94.5215 76.0293 94.4255 75.4 94.2335 74.856C94.0415 74.312 93.7375 73.8853 93.3215 73.576C92.9055 73.2667 92.3615 73.112 91.6895 73.112C90.7188 73.112 89.9935 73.432 89.5135 74.072C89.0335 74.712 88.7935 75.6027 88.7935 76.744ZM101.271 72.344C101.484 72.344 101.687 72.36 101.879 72.392C102.082 72.4133 102.263 72.4453 102.423 72.488L102.295 73.32C102.124 73.2773 101.954 73.2453 101.783 73.224C101.612 73.192 101.426 73.176 101.223 73.176C100.839 73.176 100.492 73.2507 100.183 73.4C99.8737 73.5493 99.607 73.7627 99.383 74.04C99.159 74.3173 98.9883 74.648 98.871 75.032C98.7537 75.416 98.695 75.848 98.695 76.328V81H97.783V72.488H98.551L98.647 74.088H98.695C98.8337 73.7573 99.0203 73.464 99.255 73.208C99.5003 72.9413 99.7937 72.7333 100.135 72.584C100.476 72.424 100.855 72.344 101.271 72.344ZM106.828 72.488H107.804L109.82 77.784C109.937 78.0933 110.044 78.3813 110.14 78.648C110.236 78.9147 110.321 79.1653 110.396 79.4C110.471 79.624 110.535 79.832 110.588 80.024H110.636C110.711 79.7787 110.812 79.464 110.94 79.08C111.068 78.6853 111.217 78.2587 111.388 77.8L113.372 72.488H114.348L110.508 82.52C110.316 83.0107 110.103 83.432 109.868 83.784C109.633 84.136 109.356 84.4027 109.036 84.584C108.716 84.776 108.332 84.872 107.884 84.872C107.681 84.872 107.495 84.856 107.324 84.824C107.164 84.8027 107.009 84.7707 106.86 84.728V83.96C106.999 83.992 107.137 84.0187 107.276 84.04C107.425 84.072 107.591 84.088 107.772 84.088C108.071 84.088 108.332 84.024 108.556 83.896C108.78 83.7787 108.977 83.592 109.148 83.336C109.319 83.0907 109.473 82.7813 109.612 82.408L110.172 80.968L106.828 72.488ZM122.856 76.744C122.856 77.4053 122.771 78.008 122.6 78.552C122.44 79.0853 122.195 79.5493 121.864 79.944C121.544 80.328 121.144 80.6267 120.664 80.84C120.184 81.0533 119.635 81.16 119.016 81.16C118.429 81.16 117.901 81.0587 117.432 80.856C116.973 80.6427 116.579 80.344 116.248 79.96C115.917 79.5653 115.667 79.096 115.496 78.552C115.325 78.008 115.24 77.4053 115.24 76.744C115.24 75.816 115.389 75.0267 115.688 74.376C115.997 73.7147 116.44 73.208 117.016 72.856C117.603 72.504 118.296 72.328 119.096 72.328C119.907 72.328 120.589 72.5147 121.144 72.888C121.709 73.2507 122.136 73.7627 122.424 74.424C122.712 75.0853 122.856 75.8587 122.856 76.744ZM116.184 76.744C116.184 77.4693 116.285 78.1093 116.488 78.664C116.691 79.208 117.005 79.6293 117.432 79.928C117.859 80.2267 118.392 80.376 119.032 80.376C119.693 80.376 120.237 80.2267 120.664 79.928C121.091 79.6187 121.405 79.192 121.608 78.648C121.811 78.0933 121.912 77.4587 121.912 76.744C121.912 76.0293 121.816 75.4 121.624 74.856C121.432 74.312 121.128 73.8853 120.712 73.576C120.296 73.2667 119.752 73.112 119.08 73.112C118.109 73.112 117.384 73.432 116.904 74.072C116.424 74.712 116.184 75.6027 116.184 76.744ZM131.878 72.488V81H131.126L130.998 79.544H130.95C130.8 79.8533 130.587 80.1307 130.31 80.376C130.043 80.6213 129.723 80.8133 129.35 80.952C128.976 81.0907 128.544 81.16 128.054 81.16C127.392 81.16 126.838 81.048 126.39 80.824C125.952 80.5893 125.622 80.2427 125.398 79.784C125.174 79.3253 125.062 78.7547 125.062 78.072V72.488H125.974V77.992C125.974 78.8027 126.155 79.4053 126.518 79.8C126.891 80.184 127.435 80.376 128.15 80.376C128.779 80.376 129.302 80.2587 129.718 80.024C130.134 79.7787 130.443 79.416 130.646 78.936C130.859 78.456 130.966 77.8587 130.966 77.144V72.488H131.878ZM138.177 72.344C138.391 72.344 138.593 72.36 138.785 72.392C138.988 72.4133 139.169 72.4453 139.329 72.488L139.201 73.32C139.031 73.2773 138.86 73.2453 138.689 73.224C138.519 73.192 138.332 73.176 138.129 73.176C137.745 73.176 137.399 73.2507 137.089 73.4C136.78 73.5493 136.513 73.7627 136.289 74.04C136.065 74.3173 135.895 74.648 135.777 75.032C135.66 75.416 135.601 75.848 135.601 76.328V81H134.689V72.488H135.457L135.553 74.088H135.601C135.74 73.7573 135.927 73.464 136.161 73.208C136.407 72.9413 136.7 72.7333 137.041 72.584C137.383 72.424 137.761 72.344 138.177 72.344ZM146.038 72.488V81H145.142V72.488H146.038ZM145.59 69.336C145.793 69.336 145.948 69.4 146.054 69.528C146.161 69.6453 146.214 69.8107 146.214 70.024C146.214 70.248 146.161 70.424 146.054 70.552C145.948 70.6693 145.793 70.728 145.59 70.728C145.398 70.728 145.249 70.6693 145.142 70.552C145.036 70.424 144.982 70.248 144.982 70.024C144.982 69.8107 145.036 69.6453 145.142 69.528C145.249 69.4 145.398 69.336 145.59 69.336ZM151.261 80.392C151.496 80.392 151.72 80.376 151.933 80.344C152.146 80.3013 152.333 80.2533 152.493 80.2V80.936C152.333 81 152.13 81.0533 151.885 81.096C151.65 81.1387 151.4 81.16 151.133 81.16C150.664 81.16 150.264 81.0747 149.933 80.904C149.602 80.7227 149.346 80.4453 149.165 80.072C148.994 79.6987 148.909 79.2187 148.909 78.632V73.224H147.661V72.712L148.909 72.424L149.245 70.456H149.821V72.488H152.445V73.224H149.821V78.6C149.821 79.1867 149.938 79.6347 150.173 79.944C150.408 80.2427 150.77 80.392 151.261 80.392ZM157.515 72.328C158.251 72.328 158.859 72.4987 159.339 72.84C159.829 73.1707 160.197 73.6293 160.443 74.216C160.699 74.8027 160.827 75.48 160.827 76.248V76.856H154.747C154.747 77.9973 155.008 78.8667 155.531 79.464C156.064 80.0613 156.816 80.36 157.787 80.36C158.32 80.36 158.784 80.3173 159.179 80.232C159.573 80.1467 160.005 79.9973 160.475 79.784V80.616C160.048 80.808 159.627 80.9467 159.211 81.032C158.795 81.1173 158.309 81.16 157.755 81.16C156.912 81.16 156.192 80.984 155.595 80.632C155.008 80.28 154.56 79.7787 154.251 79.128C153.952 78.4667 153.803 77.6987 153.803 76.824C153.803 75.9493 153.947 75.176 154.235 74.504C154.523 73.832 154.944 73.304 155.499 72.92C156.053 72.5253 156.725 72.328 157.515 72.328ZM157.515 73.096C156.725 73.096 156.091 73.3573 155.611 73.88C155.131 74.392 154.848 75.1333 154.763 76.104H159.883C159.883 75.5067 159.797 74.984 159.627 74.536C159.456 74.088 159.195 73.736 158.843 73.48C158.501 73.224 158.059 73.096 157.515 73.096ZM172.007 72.328C172.86 72.328 173.521 72.568 173.991 73.048C174.471 73.528 174.711 74.2853 174.711 75.32V81H173.799V75.352C173.799 74.5947 173.628 74.0347 173.287 73.672C172.945 73.2987 172.481 73.112 171.895 73.112C171.073 73.112 170.444 73.352 170.007 73.832C169.58 74.3013 169.367 75.032 169.367 76.024V81H168.455V75.352C168.455 74.84 168.375 74.4187 168.215 74.088C168.065 73.7573 167.847 73.512 167.559 73.352C167.281 73.192 166.94 73.112 166.535 73.112C166.001 73.112 165.548 73.224 165.175 73.448C164.801 73.672 164.513 74.008 164.311 74.456C164.119 74.904 164.023 75.4747 164.023 76.168V81H163.127V72.488H163.847L163.991 73.848H164.039C164.188 73.56 164.38 73.304 164.615 73.08C164.86 72.856 165.153 72.6747 165.495 72.536C165.836 72.3973 166.225 72.328 166.663 72.328C167.292 72.328 167.82 72.4613 168.247 72.728C168.673 72.9947 168.972 73.3947 169.143 73.928H169.207C169.452 73.416 169.815 73.0213 170.295 72.744C170.785 72.4667 171.356 72.328 172.007 72.328ZM182.752 78.744C182.752 79.256 182.624 79.6933 182.368 80.056C182.112 80.4187 181.739 80.696 181.248 80.888C180.757 81.0693 180.16 81.16 179.456 81.16C178.869 81.16 178.347 81.1067 177.888 81C177.429 80.8933 177.04 80.7653 176.72 80.616V79.736C177.104 79.928 177.536 80.088 178.016 80.216C178.496 80.3333 178.981 80.392 179.472 80.392C180.325 80.392 180.939 80.2533 181.312 79.976C181.685 79.688 181.872 79.2987 181.872 78.808C181.872 78.488 181.781 78.2267 181.6 78.024C181.429 77.8107 181.168 77.624 180.816 77.464C180.475 77.2933 180.048 77.1227 179.536 76.952C179.013 76.7707 178.549 76.5893 178.144 76.408C177.739 76.216 177.424 75.976 177.2 75.688C176.976 75.4 176.864 75.0053 176.864 74.504C176.864 73.8213 177.141 73.288 177.696 72.904C178.251 72.52 178.992 72.328 179.92 72.328C180.432 72.328 180.907 72.376 181.344 72.472C181.792 72.568 182.197 72.696 182.56 72.856L182.24 73.608C182.027 73.512 181.787 73.4267 181.52 73.352C181.253 73.2667 180.981 73.2027 180.704 73.16C180.427 73.1173 180.149 73.096 179.872 73.096C179.2 73.096 178.677 73.2133 178.304 73.448C177.931 73.6827 177.744 74.024 177.744 74.472C177.744 74.8133 177.829 75.0853 178 75.288C178.181 75.48 178.443 75.6453 178.784 75.784C179.136 75.9227 179.557 76.0827 180.048 76.264C180.549 76.4347 181.003 76.616 181.408 76.808C181.824 77 182.149 77.2453 182.384 77.544C182.629 77.8427 182.752 78.2427 182.752 78.744Z" fill="#0A0E01"/>
</svg>
