<svg width="24" height="24" viewBox="0 0 24 24" fill="none" xmlns="http://www.w3.org/2000/svg">
<path d="M11.0773 11.9727C11.0773 12.3013 11.2079 12.6165 11.4403 12.8489C11.6727 13.0813 11.9879 13.2119 12.3166 13.2119C12.6452 13.2119 12.9604 13.0813 13.1928 12.8489C13.4252 12.6165 13.5558 12.3013 13.5558 11.9727C13.5558 11.644 13.4252 11.3288 13.1928 11.0964C12.9604 10.864 12.6452 10.7334 12.3166 10.7334C11.9879 10.7334 11.6727 10.864 11.4403 11.0964C11.2079 11.3288 11.0773 11.644 11.0773 11.9727ZM16.2409 11.9727C16.2409 12.3013 16.3714 12.6165 16.6038 12.8489C16.8362 13.0813 17.1515 13.2119 17.4801 13.2119C17.8088 13.2119 18.124 13.0813 18.3564 12.8489C18.5888 12.6165 18.7194 12.3013 18.7194 11.9727C18.7194 11.644 18.5888 11.3288 18.3564 11.0964C18.124 10.864 17.8088 10.7334 17.4801 10.7334C17.1515 10.7334 16.8362 10.864 16.6038 11.0964C16.3714 11.3288 16.2409 11.644 16.2409 11.9727ZM5.91372 11.9727C5.91372 12.3013 6.04428 12.6165 6.27669 12.8489C6.5091 13.0813 6.82431 13.2119 7.15298 13.2119C7.48165 13.2119 7.79686 13.0813 8.02927 12.8489C8.26167 12.6165 8.39224 12.3013 8.39224 11.9727C8.39224 11.644 8.26167 11.3288 8.02927 11.0964C7.79686 10.864 7.48165 10.7334 7.15298 10.7334C6.82431 10.7334 6.5091 10.864 6.27669 11.0964C6.04428 11.3288 5.91372 11.644 5.91372 11.9727ZM22.9845 7.49067C22.401 6.10425 21.5645 4.85983 20.4982 3.79097C19.4394 2.72833 18.1824 1.88363 16.7985 1.30471C15.3786 0.708319 13.8708 0.40625 12.3166 0.40625H12.2649C10.7004 0.413995 9.18484 0.72381 7.7597 1.33311C6.38764 1.91797 5.14247 2.76416 4.09356 3.82454C3.03761 4.89081 2.20886 6.13007 1.6357 7.51133C1.04189 8.94164 0.742401 10.4623 0.750146 12.0269C0.758907 13.8198 1.18309 15.5864 1.9894 17.1879V21.1122C1.9894 21.4272 2.11453 21.7292 2.33725 21.952C2.55997 22.1747 2.86205 22.2998 3.17703 22.2998H7.10392C8.70539 23.1061 10.4719 23.5303 12.2649 23.5391H12.3191C13.8656 23.5391 15.3656 23.2396 16.7779 22.6535C18.1548 22.0815 19.4071 21.2467 20.4647 20.1956C21.531 19.1397 22.37 17.9056 22.9561 16.5295C23.5654 15.1044 23.8752 13.5889 23.883 12.0243C23.8907 10.452 23.5861 8.92615 22.9845 7.49067ZM19.0834 18.7989C17.2736 20.5907 14.8725 21.5769 12.3166 21.5769H12.2727C10.7158 21.5692 9.16935 21.1819 7.80359 20.4538L7.58672 20.3376H3.95156V16.7025L3.83538 16.4856C3.10732 15.1199 2.72005 13.5734 2.7123 12.0165C2.70198 9.4425 3.68564 7.02595 5.49031 5.20579C7.2924 3.38563 9.7012 2.37874 12.2752 2.36841H12.3191C13.61 2.36841 14.8622 2.61884 16.0421 3.11454C17.1935 3.59734 18.2263 4.29184 19.1144 5.17997C20 6.06553 20.697 7.10082 21.1798 8.2523C21.6807 9.44509 21.9311 10.7102 21.926 12.0165C21.9105 14.588 20.901 16.9968 19.0834 18.7989Z" fill="#8790BB"/>
</svg>
